<svg width="36" height="36" viewBox="0 0 36 36" fill="none" xmlns="http://www.w3.org/2000/svg">
<path d="M36 18C36 27.941 27.941 36 18 36C8.06 36 0 27.941 0 18C0 8.06 8.06 0 18 0C27.941 0 36 8.06 36 18Z" fill="#FFCC4D"/>
<path d="M18 11C26.749 11 34.033 15.509 35.656 21.484C35.878 20.356 36 19.192 36 18C36 8.06 27.941 0 18 0C8.06 0 0 8.06 0 18C0 19.192 0.123 20.356 0.344 21.484C1.967 15.509 9.252 11 18 11Z" fill="#BDDDF4"/>
<path d="M11.5 20C12.8807 20 14 18.433 14 16.5C14 14.567 12.8807 13 11.5 13C10.1193 13 9 14.567 9 16.5C9 18.433 10.1193 20 11.5 20Z" fill="#664500"/>
<path d="M24.5 20C25.8807 20 27 18.433 27 16.5C27 14.567 25.8807 13 24.5 13C23.1193 13 22 14.567 22 16.5C22 18.433 23.1193 20 24.5 20Z" fill="#664500"/>
<path d="M5.999 12C5.791 12 5.58 11.935 5.4 11.8C4.958 11.469 4.869 10.842 5.2 10.4C8.462 6.05 12.816 6 13 6C13.552 6 14 6.448 14 7C14 7.551 13.555 7.998 13.004 8C12.849 8.002 9.436 8.086 6.8 11.6C6.604 11.862 6.303 12 5.999 12ZM30.001 12C29.696 12 29.397 11.862 29.2 11.6C26.56 8.079 23.139 8.002 22.994 8C22.444 7.994 22 7.544 22.003 6.995C22.006 6.444 22.45 6 23 6C23.184 6 27.537 6.05 30.8 10.4C31.132 10.842 31.042 11.469 30.6 11.8C30.42 11.935 30.21 12 30.001 12V12ZM23.485 27.879C23.474 27.835 22.34 23.5 18 23.5C13.66 23.5 12.526 27.835 12.515 27.879C12.462 28.092 12.558 28.31 12.746 28.423C12.933 28.535 13.179 28.509 13.342 28.363C13.353 28.355 14.357 27.5 18 27.5C21.589 27.5 22.617 28.33 22.656 28.363C22.751 28.453 22.875 28.5 23 28.5C23.084 28.5 23.169 28.479 23.246 28.436C23.442 28.324 23.54 28.097 23.485 27.879V27.879Z" fill="#664500"/>
</svg>
