<svg width="36" height="36" viewBox="0 0 36 36" fill="none" xmlns="http://www.w3.org/2000/svg">
<path d="M36 18C36 27.941 27.941 36 18 36C8.06 36 0 27.941 0 18C0 8.06 8.06 0 18 0C27.941 0 36 8.06 36 18Z" fill="#FFCC4D"/>
<path d="M28.457 17.797C28.397 17.662 26.958 14.5 24 14.5C21.043 14.5 19.603 17.662 19.543 17.797C19.451 18.004 19.511 18.246 19.688 18.388C19.863 18.53 20.114 18.535 20.298 18.402C20.31 18.393 21.56 17.5 24 17.5C26.426 17.5 27.674 18.381 27.702 18.401C27.79 18.467 27.896 18.5 28 18.5C28.11 18.5 28.221 18.463 28.312 18.391C28.489 18.249 28.55 18.005 28.457 17.797V17.797ZM17.457 17.797C17.397 17.662 15.958 14.5 13 14.5C10.043 14.5 8.603 17.662 8.543 17.797C8.451 18.004 8.511 18.246 8.687 18.388C8.863 18.53 9.114 18.535 9.297 18.402C9.31 18.393 10.559 17.5 13 17.5C15.426 17.5 16.674 18.381 16.702 18.401C16.791 18.467 16.896 18.5 17 18.5C17.11 18.5 17.221 18.463 17.312 18.391C17.49 18.249 17.549 18.005 17.457 17.797V17.797ZM13 28C13 28 14 24 18 24C22 24 23 28 23 28C23 28 22 27 18 27C14 27 13 28 13 28Z" fill="#664500"/>
<path d="M11 11C11 13.762 8.762 16 6 16C3.239 16 1 13.762 1 11C1 8.238 5 1 6 1C7 1 11 8.238 11 11Z" fill="#5DADEC"/>
</svg>
