<svg width="36" height="36" viewBox="0 0 36 36" fill="none" xmlns="http://www.w3.org/2000/svg">
<path d="M36 18C36 27.941 27.941 36 18 36C8.059 36 0 27.941 0 18C0 8.059 8.059 0 18 0C27.941 0 36 8.059 36 18Z" fill="#FFCC4D"/>
<path d="M28.312 15.612C28.137 15.47 27.886 15.465 27.702 15.598C27.69 15.607 26.441 16.5 24 16.5C21.56 16.5 20.31 15.607 20.3 15.6C20.117 15.463 19.865 15.467 19.689 15.609C19.511 15.751 19.451 15.995 19.543 16.203C19.603 16.338 21.043 19.5 24 19.5C26.958 19.5 28.397 16.338 28.457 16.203C28.549 15.996 28.489 15.754 28.312 15.612ZM15.702 15.598C15.69 15.607 14.442 16.5 12 16.5C9.559 16.5 8.31 15.607 8.3 15.6C8.117 15.463 7.866 15.467 7.689 15.609C7.511 15.751 7.451 15.995 7.543 16.203C7.603 16.338 9.043 19.5 12 19.5C14.958 19.5 16.397 16.338 16.457 16.203C16.549 15.996 16.489 15.754 16.312 15.612C16.136 15.469 15.884 15.465 15.702 15.598ZM29.001 13C28.696 13 28.397 12.862 28.2 12.6C25.608 9.144 21.239 9.972 21.196 9.98C20.649 10.088 20.128 9.737 20.019 9.196C19.911 8.655 20.262 8.128 20.803 8.019C21.034 7.972 26.46 6.947 29.799 11.399C30.131 11.841 30.041 12.468 29.599 12.799C29.42 12.935 29.21 13 29.001 13V13ZM6.999 13C6.791 13 6.58 12.935 6.4 12.8C5.958 12.469 5.869 11.842 6.2 11.4C9.539 6.946 14.966 7.974 15.196 8.02C15.738 8.128 16.089 8.655 15.98 9.197C15.872 9.737 15.346 10.088 14.806 9.982C14.62 9.947 10.37 9.174 7.8 12.6C7.604 12.862 7.303 13 6.999 13V13ZM23.254 23.577C23.066 23.466 22.822 23.491 22.657 23.637C22.647 23.645 21.644 24.5 18 24.5C14.359 24.5 13.354 23.646 13.354 23.646C13.195 23.486 12.95 23.456 12.754 23.564C12.559 23.675 12.461 23.903 12.516 24.121C12.526 24.165 13.66 28.5 18 28.5C22.34 28.5 23.474 24.165 23.485 24.121C23.538 23.908 23.441 23.69 23.254 23.577V23.577Z" fill="#664500"/>
</svg>
