<svg width="36" height="36" viewBox="0 0 36 36" fill="none" xmlns="http://www.w3.org/2000/svg">
<path d="M36 18C36 27.941 27.941 36 18 36C8.059 36 0 27.941 0 18C0 8.059 8.059 0 18 0C27.941 0 36 8.059 36 18Z" fill="#FFCC4D"/>
<path d="M29 10C23.446 10 21.198 5.633 21.105 5.447C20.858 4.953 21.058 4.352 21.552 4.105C22.045 3.859 22.644 4.057 22.892 4.548C22.967 4.694 24.713 8 29 8C29.553 8 30 8.448 30 9C30 9.552 29.553 10 29 10ZM7 10C6.448 10 6 9.552 6 9C6 8.448 6.448 8 7 8C12.083 8 12.996 4.88 13.033 4.747C13.178 4.219 13.725 3.899 14.252 4.038C14.782 4.177 15.103 4.711 14.97 5.243C14.921 5.437 13.704 10 7 10ZM6.001 23C5.697 23 5.397 22.862 5.2 22.6C4.868 22.159 4.958 21.532 5.4 21.201C5.543 21.094 8.351 19.018 12.256 18.268C9.781 17.027 7.034 17 6.999 17C6.447 16.999 6 16.55 6.001 15.998C6.001 15.447 6.448 15 7 15C7.221 15 12.452 15.038 15.707 18.293C15.993 18.579 16.079 19.009 15.924 19.383C15.769 19.757 15.404 20 15 20C10.387 20 6.637 22.772 6.6 22.8C6.42 22.935 6.209 23 6.001 23V23ZM29.999 22.999C29.791 22.999 29.581 22.935 29.401 22.801C29.363 22.772 25.59 20 21 20C20.596 20 20.23 19.757 20.076 19.383C19.921 19.009 20.007 18.579 20.293 18.293C23.549 15.038 28.779 15 29 15C29.552 15 29.998 15.447 29.999 15.998C30 16.55 29.553 16.998 29.002 17C28.966 17 26.219 17.027 23.744 18.268C27.649 19.018 30.457 21.093 30.599 21.201C31.04 21.532 31.13 22.157 30.8 22.599C30.604 22.86 30.304 22.999 29.999 22.999ZM25.454 30.791C25.336 30.534 22.516 24.5 18.244 24.5C13.995 24.5 10.698 30.507 10.56 30.762C10.447 30.971 10.497 31.231 10.679 31.383C10.772 31.461 10.886 31.5 11 31.5C11.11 31.5 11.22 31.464 11.311 31.391C11.342 31.367 14.474 28.912 18.244 28.912C21.987 28.912 24.632 31.342 24.658 31.366C24.833 31.528 25.1 31.546 25.292 31.406C25.486 31.266 25.554 31.009 25.454 30.791Z" fill="#664500"/>
</svg>
